# xmcd CD database file
#
# Track frame offsets:
#	150
#	13970
#	25586
#	38426
#	52930
#	66571
#	78143
#	91905
#	105638
#	119314
#	132856
#	147915
#	162987
#	176990
#	189131
#	201763
#	215429
#	229991
#	244354
#	258284
#
# Disc length: 3631 seconds
#
# Revision: 3
# Processed by: cddbd v1.5.2PL0 Copyright (c) Steve Scherf et al.
# Submitted via: CDex 1.51
#
DISCID=110e2d14
DTITLE=Ella Fitzgerald - Everyone's Wrong But Me  [CD 06-10]
DYEAR=1900
DGENRE=Jazz
TTITLE0=Moon Ray
TTITLE1=Is There Somebody Else ¿
TTITLE2=Sugar Blues
TTITLE3=The Starlit Hour
TTITLE4=What's The Matter With Me ¿
TTITLE5=Baby, Won't You Please Come Home ¿
TTITLE6=If It Weren't For You
TTITLE7=Sing Song Swing
TTITLE8=Imagination
TTITLE9=Take It From The Top
TTITLE10=Tea Dance
TTITLE11=Jubilee Swing
TTITLE12=Untitled Instrumental
TTITLE13=Deedle-De-Dum
TTITLE14=Shake Down The Stars
TTITLE15=Gulf Coast Blues
TTITLE16=I Fell In Love With A Dream
TTITLE17=Five O'clock Whistle
TTITLE18=So Long
TTITLE19=Louisville, K-Y
EXTD=
EXTT0=
EXTT1=
EXTT2=
EXTT3=
EXTT4=
EXTT5=
EXTT6=
EXTT7=
EXTT8=
EXTT9=
EXTT10=
EXTT11=
EXTT12=
EXTT13=
EXTT14=
EXTT15=
EXTT16=
EXTT17=
EXTT18=
EXTT19=
PLAYORDER=
